<?xml version="1.0" encoding="utf-8"?>
<!-- Generator: Adobe Illustrator 19.1.0, SVG Export Plug-In . SVG Version: 6.00 Build 0)  -->
<svg version="1.1" id="Capa_1" xmlns="http://www.w3.org/2000/svg" xmlns:xlink="http://www.w3.org/1999/xlink" x="0px" y="0px"
	 viewBox="-26 233 280 280" style="enable-background:new -26 233 280 280;" xml:space="preserve">
<style type="text/css">
	.st0{opacity:0.8;}
	.st1{fill:#D6AE67;}
</style>
<g class="st0">
	<g>
		<path class="st1" d="M114,233c-77.2,0-140,62.8-140,140s62.8,140,140,140s140-62.8,140-140S191.2,233,114,233z M148.8,378H126
			c0,36.4,0,81.2,0,81.2H92.2c0,0,0-44.4,0-81.2h-16v-28.7h16v-18.6c0-13.3,6.3-34.1,34.1-34.1l25,0.1v27.9c0,0-15.2,0-18.2,0
			s-7.2,1.5-7.2,7.8v16.9h25.7L148.8,378z"/>
	</g>
</g>
</svg>
