<?xml version="1.0" encoding="utf-8"?>
<!-- Generator: Adobe Illustrator 19.1.0, SVG Export Plug-In . SVG Version: 6.00 Build 0)  -->
<svg version="1.1" id="Capa_1" xmlns="http://www.w3.org/2000/svg" xmlns:xlink="http://www.w3.org/1999/xlink" x="0px" y="0px"
	 viewBox="-48 216.9 277.2 277.2" style="enable-background:new -48 216.9 277.2 277.2;" xml:space="preserve">
<style type="text/css">
	.st0{opacity:0.8;}
	.st1{fill:#D6AE67;}
</style>
<g class="st0">
	<g>
		<g>
			<path class="st1" d="M72,378.5c-0.9-0.6-1.8-1.2-2.8-1.9c-2.8-0.9-5.8-1.3-8.8-1.3H60c-14,0-26.3,8.5-26.3,18.2
				c0,10.6,10.5,18.8,24,18.8c17.7,0,26.7-6.1,26.7-18.2c0-1.1-0.1-2.3-0.4-3.5C82.8,385.8,78.5,382.9,72,378.5z"/>
			<path class="st1" d="M62.1,341.7L62.1,341.7c3.4,0,6.2-1.3,8.4-3.8c3.4-3.9,5-10.3,4.1-17.2c-1.6-12.2-10.3-22.4-19.4-22.6h-0.4
				c-3.2,0-6.1,1.3-8.3,3.8c-3.4,3.9-4.8,10-3.9,16.8C44.2,330.9,53.1,341.4,62.1,341.7L62.1,341.7L62.1,341.7z"/>
			<path class="st1" d="M90.6,216.9C14.2,216.9-48,279.1-48,355.5S14.2,494.1,90.6,494.1c76.4,0,138.6-62.2,138.6-138.6
				S167,216.9,90.6,216.9z M74.6,423c-5.2,1.5-10.9,2.3-16.8,2.3c-6.6,0-13-0.8-18.9-2.3c-11.5-2.9-20-8.4-23.9-15.5
				c-1.7-3.1-2.6-6.3-2.6-9.7c0-3.5,0.8-7,2.5-10.5c6.3-13.4,22.9-22.4,41.2-22.4c0.2,0,0.4,0,0.5,0c-1.5-2.6-2.2-5.4-2.2-8.2
				c0-1.4,0.2-2.9,0.6-4.4c-19.3-0.4-33.7-14.5-33.7-33.2c0-13.1,10.5-25.9,25.5-31.1c4.5-1.6,9.1-2.3,13.6-2.3h41.2
				c1.4,0,2.6,0.9,3.1,2.2c0.4,1.3,0,2.8-1.2,3.6l-9.2,6.7c-0.6,0.4-1.2,0.6-1.9,0.6h-3.3c4.3,5.1,6.8,12.4,6.8,20.6
				c0,9-4.6,17.6-12.9,24.1c-6.4,5-6.7,6.4-6.7,9.2c0.1,1.6,4.5,6.7,9.5,10.2c11.5,8.1,15.8,16.1,15.8,29.4
				C101.5,406.2,91,418.2,74.6,423z M167.7,352.3c0,1.8-1.5,3.2-3.2,3.2h-23.4v23.4c0,1.8-1.5,3.2-3.2,3.2h-6.7
				c-1.8,0-3.2-1.5-3.2-3.2v-23.4h-23.4c-1.8,0-3.2-1.4-3.2-3.2v-6.7c0-1.8,1.5-3.2,3.2-3.2H128V319c0-1.8,1.5-3.2,3.2-3.2h6.7
				c1.8,0,3.2,1.4,3.2,3.2v23.4h23.4c1.8,0,3.2,1.5,3.2,3.2V352.3L167.7,352.3z"/>
		</g>
	</g>
</g>
</svg>
