<?xml version="1.0" encoding="utf-8"?>
<!-- Generator: Adobe Illustrator 19.1.0, SVG Export Plug-In . SVG Version: 6.00 Build 0)  -->
<svg version="1.1" id="Capa_1" xmlns="http://www.w3.org/2000/svg" xmlns:xlink="http://www.w3.org/1999/xlink" x="0px" y="0px"
	 viewBox="-54 177.5 280 280" style="enable-background:new -54 177.5 280 280;" xml:space="preserve">
<style type="text/css">
	.st0{opacity:0.8;}
	.st1{fill:#D6AE67;}
</style>
<g class="st0">
	<g>
		<g>
			<path class="st1" d="M86,177.5c-77.3,0-140,62.7-140,140s62.7,140,140,140s140-62.7,140-140S163.3,177.5,86,177.5z M51,385.3H16
				V262.8h35V385.3z M34.6,255.3c-9.1,0-16.4-7.4-16.4-16.4c0-9.1,7.4-16.4,16.4-16.4c9.1,0,16.4,7.4,16.4,16.4
				C51,248,43.7,255.3,34.6,255.3z M173.5,385.3h-35v-75.7c0-8.9-2.5-15.1-13.4-15.1c-18.1,0-21.6,15.1-21.6,15.1v75.7h-35V262.8h35
				v11.7c5-3.8,17.5-11.7,35-11.7c11.3,0,35,6.8,35,47.8V385.3L173.5,385.3z"/>
		</g>
	</g>
</g>
</svg>
