<?xml version="1.0" encoding="utf-8"?>
<!-- Generator: Adobe Illustrator 19.1.0, SVG Export Plug-In . SVG Version: 6.00 Build 0)  -->
<svg version="1.1" id="Capa_1" xmlns="http://www.w3.org/2000/svg" xmlns:xlink="http://www.w3.org/1999/xlink" x="0px" y="0px"
	 viewBox="-63 248 280 280" style="enable-background:new -63 248 280 280;" xml:space="preserve">
<style type="text/css">
	.st0{opacity:0.8;}
	.st1{fill:#D6AE67;}
</style>
<g class="st0">
	<g>
		<path class="st1" d="M77,248c-77.2,0-140,62.8-140,140S-0.2,528,77,528s140-62.8,140-140S154.2,248,77,248z M139.5,356
			c0.1,1.4,0.1,2.8,0.1,4.2c0,42.6-32.4,91.7-91.7,91.7c-18.2,0-35.1-5.3-49.4-14.5c2.5,0.3,5.1,0.5,7.7,0.5c15.1,0,29-5.2,40-13.8
			c-14.1-0.3-26-9.6-30.1-22.4c2,0.4,4,0.6,6.1,0.6c2.9,0,5.8-0.4,8.5-1.1c-14.7-3-25.8-16-25.8-31.6c0-0.1,0-0.3,0-0.4
			c4.3,2.4,9.3,3.9,14.6,4c-8.6-5.8-14.3-15.6-14.3-26.8c0-5.9,1.6-11.4,4.4-16.2c15.9,19.5,39.6,32.3,66.4,33.7
			c-0.6-2.4-0.8-4.8-0.8-7.3c0-17.8,14.4-32.2,32.2-32.2c9.3,0,17.6,3.9,23.5,10.2c7.3-1.4,14.2-4.1,20.5-7.8
			c-2.4,7.5-7.5,13.8-14.2,17.8c6.5-0.8,12.8-2.5,18.5-5.1C151.2,345.8,145.8,351.5,139.5,356z"/>
	</g>
</g>
</svg>
